<svg width="58px" height="58px" viewBox="0 0 58 58" version="1.1" xmlns="http://www.w3.org/2000/svg" xmlns:xlink="http://www.w3.org/1999/xlink"><title>logo</title> <desc>Created with Sketch.</desc> <g id="Page-1" stroke="none" stroke-width="1" fill="none" fill-rule="evenodd"> <g id="logo" fill="#000000" fill-rule="nonzero"> <path d="M57,56 L51.624,56 L30.113,12.083 L31.897,8.44 C32.14,7.944 31.935,7.345 31.439,7.102 C30.942,6.86 30.343,7.064 30.101,7.56 L29,9.81 L27.898,7.56 C27.655,7.064 27.057,6.859 26.56,7.102 C26.064,7.345 25.859,7.944 26.102,8.44 L27.886,12.083 L6.376,56 L1,56 C0.448,56 0,56.448 0,57 C0,57.552 0.448,58 1,58 L57,58 C57.553,58 58,57.552 58,57 C58,56.448 57.553,56 57,56 Z M29,40.893 L34.566,56 L23.434,56 L29,40.893 Z M21.602,55.188 L18.362,51.948 L26.138,42.876 L21.602,55.188 Z M31.862,42.876 L39.638,51.948 L36.398,55.188 L31.862,42.876 Z M41.707,52.707 C42.077,52.337 42.099,51.746 41.759,51.349 L30,37.63 L30,33.414 L32.285,35.699 L33.009,36.406 L37.567,31.848 L49.396,56 L38.414,56 L41.707,52.707 Z M36.637,29.949 L33,33.586 L29.715,30.301 L29.707,30.294 C29.706,30.293 29.706,30.293 29.705,30.292 L28.991,29.594 L28.293,30.292 L28.292,30.293 L25,33.586 L21.363,29.949 L29,14.357 L36.637,29.949 Z M20.433,31.847 L24.285,35.698 L25.009,36.405 L28,33.414 L28,37.63 L16.241,51.349 C15.901,51.746 15.924,52.337 16.293,52.707 L19.586,56 L8.603,56 L20.433,31.847 Z" id="Shape"></path> <path d="M50.681,16.008 C53.971,16.008 56.893,13.847 57.951,10.632 C58.073,10.259 57.967,9.85 57.679,9.584 C57.389,9.318 56.971,9.247 56.613,9.398 C55.89,9.703 55.131,9.858 54.356,9.858 C51.04,9.858 48.341,7.048 48.341,3.595 C48.341,3.146 48.393,2.68 48.494,2.211 C48.577,1.827 48.428,1.43 48.111,1.196 C47.796,0.962 47.374,0.936 47.029,1.127 C44.543,2.514 43,5.182 43,8.092 C43,12.457 46.445,16.008 50.681,16.008 Z M46.364,4.245 C46.686,8.499 50.146,11.859 54.354,11.859 C54.598,11.859 54.841,11.848 55.083,11.825 C54.026,13.179 52.422,14.009 50.681,14.009 C47.549,14.009 45,11.355 45,8.092 C45,6.655 45.497,5.299 46.364,4.245 Z" id="Shape"></path> <path d="M3,20 L4.586,20 L7,22.414 L7,24 C7,24.552 7.448,25 8,25 C8.552,25 9,24.552 9,24 L9,22.414 L11.414,20 L13,20 C13.552,20 14,19.552 14,19 C14,18.448 13.552,18 13,18 L11.414,18 L9,15.586 L9,14 C9,13.448 8.552,13 8,13 C7.448,13 7,13.448 7,14 L7,15.586 L4.586,18 L3,18 C2.448,18 2,18.448 2,19 C2,19.552 2.448,20 3,20 Z M8,17.414 L9.586,19 L8,20.586 L6.414,19 L8,17.414 Z" id="Shape"></path> <circle id="Oval" cx="5" cy="1" r="1"></circle> <circle id="Oval" cx="20" cy="12" r="1"></circle> <circle id="Oval" cx="51" cy="30" r="1"></circle> <circle id="Oval" cx="40" cy="2" r="1"></circle> </g> </g> </svg>